<?xml version="1.0" encoding="UTF-8"?>
<svg width="1200pt" height="1200pt" version="1.1" viewBox="0 0 1200 1200" xmlns="http://www.w3.org/2000/svg">
 <g>
  <path d="m961.23 642.02c-69.551 113.39-190.98 191.58-331 201.52-17.723 123.95-88.941 230.8-189.45 296.46h227.12c166.99-33.035 293.33-180.6 293.33-357.16z"/>
  <path d="m238.77 1140h40.441c147.43-29.23 263.06-147.74 288.06-296.65-138.96-10.691-259.36-88.621-328.5-201.34z"/>
  <path d="m600 310.3c38.762-68.039 111.84-114.12 195.59-114.12 38.34 0 74.449 9.6836 106.08 26.664-64.68-98.004-175.71-162.84-301.66-162.84-125.95 0-237 64.836-301.67 162.84 31.633-16.98 67.727-26.664 106.08-26.664 83.738 0 156.82 46.066 195.58 114.12z"/>
  <path d="m238.77 421.26c0.011719 199.19 162.06 361.22 361.25 361.22 199.18 0 361.22-162.04 361.23-361.22 0-89.785-75.863-162.83-165.65-162.83s-164.45 73.043-164.45 162.83v164.48h-62.258l0.003906-164.48c0-89.785-74.676-162.83-164.47-162.83-89.793 0-165.66 73.043-165.66 162.83zm493.08 6.8125c0-28.391 23.016-51.406 51.406-51.406h62.723v62.723c0 28.391-23.016 51.406-51.406 51.406h-62.723zm-377.83-51.406h62.723c28.391 0 51.406 23.016 51.406 51.406l0.003906 62.727h-62.723c-28.391 0-51.422-23.016-51.422-51.406v-62.727z"/>
 </g>
</svg>
